<!DOCTYPE svg PUBLIC "-//W3C//DTD SVG 20010904//EN" "http://www.w3.org/TR/2001/REC-SVG-20010904/DTD/svg10.dtd">
<svg version="1.0" xmlns="http://www.w3.org/2000/svg" viewBox="0 0 1360 1630" preserveAspectRatio="xMidYMid meet">
<g id="layer101" fill="#020202" stroke="none">
 <path d="M436 1568 c1 -35 5 -88 9 -118 6 -44 3 -67 -15 -115 -12 -33 -41 -118 -66 -188 -24 -71 -48 -137 -54 -147 -5 -10 -33 -31 -62 -48 -29 -16 -67 -45 -85 -63 -44 -47 -143 -200 -143 -222 0 -28 46 -153 80 -215 16 -30 30 -62 30 -70 0 -8 14 -34 30 -59 17 -24 30 -52 30 -62 0 -16 37 -103 69 -161 15 -28 56 -35 103 -17 69 27 108 55 108 77 0 11 5 28 11 38 14 23 -10 80 -43 101 -55 34 -106 60 -110 55 -3 -3 -13 13 -21 34 -9 22 -27 49 -41 60 -20 15 -29 37 -41 93 -9 41 -18 82 -21 91 -4 12 4 21 28 32 18 7 57 34 86 60 30 25 61 46 70 46 36 0 93 22 122 46 37 31 64 25 79 -18 14 -39 14 -98 1 -98 -18 0 -33 -53 -21 -72 6 -10 11 -33 11 -52 0 -48 15 -76 57 -108 93 -72 193 -1 207 145 6 63 5 69 -19 91 -29 27 -34 85 -9 110 20 20 18 21 62 -9 20 -14 59 -32 87 -41 33 -11 69 -35 105 -69 31 -29 66 -55 78 -59 26 -9 26 -8 6 -97 -12 -55 -23 -77 -54 -109 -21 -22 -42 -49 -45 -60 -4 -11 -12 -20 -18 -20 -22 0 -117 -72 -136 -104 -12 -19 -18 -48 -17 -76 1 -44 2 -45 66 -82 36 -21 74 -38 86 -38 19 0 74 47 74 64 0 5 16 34 35 66 19 32 35 65 35 73 0 9 13 36 30 60 16 25 30 50 30 56 0 6 12 30 26 52 28 44 57 109 80 176 l15 43 -52 87 c-70 120 -107 163 -182 212 -67 43 -79 61 -96 141 -6 25 -29 101 -52 170 -41 125 -41 125 -30 205 6 44 12 101 15 128 l4 47 -267 0 -268 0 3 -62z"/>
 </g>
<g id="layer102" fill="#616161" stroke="none">
 <path d="M431 1549 c0 -19 4 -43 9 -54 6 -13 7 -2 3 30 -7 59 -13 72 -12 24z"/>
 <path d="M453 1425 c0 -22 2 -30 4 -17 2 12 2 30 0 40 -3 9 -5 -1 -4 -23z"/>
 <path d="M402 1265 c-7 -14 -12 -31 -12 -38 1 -7 7 3 16 22 17 39 13 54 -4 16z"/>
 <path d="M1012 1130 c0 -8 4 -26 8 -40 6 -20 8 -21 8 -5 0 11 -3 29 -8 40 -5 12 -8 14 -8 5z"/>
 <path d="M314 1014 c-11 -24 -17 -41 -12 -38 12 7 40 64 36 73 -2 4 -12 -12 -24 -35z"/>
 <path d="M229 942 c-42 -27 -109 -96 -130 -134 -18 -34 -1 -18 35 32 31 44 67 75 132 117 11 6 17 12 13 12 -3 1 -25 -12 -50 -27z"/>
 <path d="M1170 907 c0 -2 15 -16 33 -33 l32 -29 -29 33 c-28 30 -36 37 -36 29z"/>
 <path d="M500 820 c-45 -39 -34 -39 15 0 21 17 34 30 29 30 -5 -1 -25 -14 -44 -30z"/>
 <path d="M818 829 c-10 -5 -18 -15 -18 -20 0 -6 7 -3 16 5 20 20 20 20 57 -5 l32 -21 -30 26 c-34 29 -34 29 -57 15z"/>
 <path d="M1255 803 c15 -24 30 -43 32 -43 7 0 -31 61 -46 73 -8 7 -2 -7 14 -30z"/>
 <path d="M581 823 c0 -4 4 -17 9 -28 8 -19 9 -19 9 2 1 12 -3 25 -9 28 -5 3 -10 3 -9 -2z"/>
 <path d="M319 733 l-34 -38 40 35 c22 19 42 36 44 38 2 1 0 2 -5 2 -6 0 -26 -17 -45 -37z"/>
 <path d="M985 759 c17 -7 56 -36 87 -65 31 -30 60 -54 64 -54 5 0 4 4 -1 8 -6 5 -35 31 -65 59 -30 28 -69 54 -85 57 l-30 6 30 -11z"/>
 <path d="M41 716 c-12 -18 -21 -44 -20 -57 1 -21 2 -20 8 6 4 17 16 43 25 58 10 15 16 27 13 27 -3 0 -15 -15 -26 -34z"/>
 <path d="M601 724 c0 -12 -8 -24 -16 -28 -8 -3 -15 -10 -15 -16 0 -6 9 -2 21 9 12 11 19 27 16 38 -4 15 -5 15 -6 -3z"/>
 <path d="M1315 701 c8 -17 19 -33 25 -36 5 -3 1 10 -11 29 -25 43 -36 48 -14 7z"/>
 <path d="M245 679 c-16 -10 -25 -19 -19 -19 7 0 22 9 35 20 30 24 23 24 -16 -1z"/>
 <path d="M191 648 c0 -7 4 -22 9 -33 7 -16 8 -14 7 12 -1 18 -5 33 -9 33 -5 0 -8 -6 -7 -12z"/>
 <path d="M830 592 c0 -27 -7 -58 -16 -72 -16 -24 -16 -24 1 -8 19 18 39 128 23 128 -4 0 -8 -21 -8 -48z"/>
 <path d="M1328 575 c-3 -11 -9 -29 -13 -40 -3 -11 1 -7 10 8 9 16 15 33 12 40 -2 6 -6 3 -9 -8z"/>
 <path d="M581 558 c-2 -28 19 -61 52 -87 l32 -25 -33 36 c-18 19 -37 48 -42 64 -4 16 -9 21 -9 12z"/>
 <path d="M60 535 c0 -5 16 -39 35 -75 19 -35 35 -72 35 -81 0 -10 4 -20 9 -23 17 -11 -2 45 -40 116 -21 40 -38 69 -39 63z"/>
 <path d="M1287 475 c-9 -19 -15 -35 -12 -35 7 0 37 61 33 66 -3 2 -12 -12 -21 -31z"/>
 <path d="M761 464 c-19 -13 -29 -24 -23 -24 6 0 24 11 39 25 35 31 28 31 -16 -1z"/>
 <path d="M1105 437 c-21 -20 -24 -26 -9 -19 22 11 50 41 43 45 -2 2 -17 -10 -34 -26z"/>
 <path d="M268 432 c15 -15 29 -26 31 -25 6 4 -41 53 -50 53 -4 0 4 -13 19 -28z"/>
 <path d="M1248 408 c-18 -28 -29 -70 -17 -62 5 3 9 12 9 20 0 8 7 26 16 39 9 14 14 25 11 25 -2 0 -11 -10 -19 -22z"/>
 <path d="M1058 375 c-6 -13 -18 -26 -27 -28 -12 -4 -10 -5 4 -6 14 -1 24 8 32 29 14 36 7 40 -9 5z"/>
 <path d="M1191 300 c-13 -18 -20 -40 -18 -53 4 -19 4 -18 6 5 0 15 5 30 11 33 10 6 34 45 27 45 -2 0 -13 -14 -26 -30z"/>
 <path d="M445 278 c17 -19 31 -34 33 -32 7 5 -22 41 -42 54 -15 10 -13 4 9 -22z"/>
 <path d="M884 176 c1 -40 5 -51 26 -64 l25 -14 -24 19 c-17 15 -22 27 -18 44 3 13 2 33 -3 44 -5 13 -7 4 -6 -29z"/>
 <path d="M221 185 c0 -5 6 -21 14 -35 8 -14 14 -20 14 -15 0 6 -6 21 -14 35 -8 14 -14 21 -14 15z"/>
 <path d="M405 114 c-33 -18 -56 -34 -52 -34 13 0 105 49 112 60 8 12 11 14 -60 -26z"/>
 <path d="M1082 89 c-28 -34 -49 -36 -102 -9 -22 11 -40 18 -40 15 0 -8 79 -45 98 -45 17 0 80 56 71 64 -2 2 -14 -10 -27 -25z"/>
 </g>
<g id="layer103" fill="#a2a2a2" stroke="none">
 <path d="M1170 907 c0 -2 15 -16 33 -33 l32 -29 -29 33 c-28 30 -36 37 -36 29z"/>
 <path d="M314 728 l-29 -33 33 29 c30 28 37 36 29 36 -2 0 -16 -15 -33 -32z"/>
 <path d="M1065 700 c27 -27 51 -50 54 -50 3 0 -17 23 -44 50 -27 28 -51 50 -54 50 -3 0 17 -22 44 -50z"/>
 </g>
<g id="layer104" fill="#d0d0d0" stroke="none">
 </g>

</svg>