<svg width="64" height="64" xmlns="http://www.w3.org/2000/svg">
 <defs>
  <linearGradient spreadMethod="pad" y2="0" x2="1" y1="0" x1="0" id="svg_8">
   <stop offset="0" stop-color="#479aa0"/>
   <stop offset="1" stop-color="#b8655f"/>
  </linearGradient>
 </defs>
 <g>
  <title>background</title>
  <rect fill="none" id="canvas_background" height="402" width="582" y="-1" x="-1"/>
 </g>
 <g>
  <title>Layer 1</title>
  <path fill="#479aa0" id="svg_1" d="m44.861112,21.83333l-26,0a4,4 0 0 0 -4,4l0,15a4,4 0 0 0 4,4l26,0a4,4 0 0 0 4,-4l0,-15a4,4 0 0 0 -4,-4zm2,19a2,2 0 0 1 -2,2l-26,0a2,2 0 0 1 -2,-2l0,-15a2,2 0 0 1 2,-2l26,0a2,2 0 0 1 2,2l0,15z"/>
  <path fill="#479aa0" id="svg_2" d="m39.861112,25.83333l-20,0a1,1 0 0 0 -1,1l0,13a1,1 0 0 0 1,1l20,0a1,1 0 0 0 1,-1l0,-13a1,1 0 0 0 -1,-1zm-1,13l-18,0l0,-11l18,0l0,11z"/>
  <path fill="#479aa0" id="svg_3" d="m43.861112,31.83333a1,1 0 0 0 -1,1l0,2a1,1 0 0 0 2,0l0,-2a1,1 0 0 0 -1,-1z"/>
  <path fill="#479aa0" id="svg_5" d="m60.861112,27.83333l-3.051,0a16.969,16.969 0 0 0 -15.481,-10l-20.468,0a17.06,17.06 0 0 0 -15.4,9.811l-0.094,0.189l-3.506,0a1,1 0 0 0 -1,1l0,10a1,1 0 0 0 1,1l3.709,0a16.9,16.9 0 0 0 14.991,9l21.025,0a17.04,17.04 0 0 0 14.992,-9l3.283,0a1,1 0 0 0 1,-1l0,-10a1,1 0 0 0 -1,-1zm-57,2l1.639,0a11.3,11.3 0 0 0 0.117,8l-1.756,0l0,-8zm38.725,17l-21.025,0a14.919,14.919 0 0 1 -13.418,-8.292l-0.33,-0.66a9.349,9.349 0 0 1 -0.11,-8.179l0.565,-1.213a15.053,15.053 0 0 1 13.593,-8.656l20.468,0a14.981,14.981 0 0 1 14.232,10.257l0.218,0.653a9.451,9.451 0 0 1 -0.065,6.136a15.033,15.033 0 0 1 -14.128,9.954zm17.275,-9l-1.38,0c0.037,-0.1 0.08,-0.187 0.114,-0.283a11.453,11.453 0 0 0 0.079,-7.44l-0.092,-0.277l1.279,0l0,8z"/>
  <rect fill-opacity="0" stroke="null" id="svg_7" height="67.360871" width="50.972041" y="0.114263" x="6.097314" stroke-opacity="null" stroke-width="null" fill="url(#svg_8)"/>
 </g>
</svg>