<!DOCTYPE svg PUBLIC "-//W3C//DTD SVG 20010904//EN" "http://www.w3.org/TR/2001/REC-SVG-20010904/DTD/svg10.dtd">
<svg version="1.0" xmlns="http://www.w3.org/2000/svg" width="600px" heigth="400px" viewBox="0 0 4190 2290" preserveAspectRatio="xMidYMid meet">
<g id="layer101" fill="#652b19" stroke="none">
 <path d="M1945 2194 c-272 -28 -396 -62 -645 -182 -164 -78 -227 -105 -330 -136 -181 -55 -408 -86 -624 -86 -80 0 -98 -3 -127 -23 -18 -12 -39 -34 -46 -47 -18 -36 -18 -1124 0 -1160 7 -13 28 -35 46 -47 30 -21 46 -23 145 -23 233 0 427 -28 621 -90 125 -40 181 -63 342 -143 70 -35 155 -73 188 -84 198 -71 452 -103 667 -83 237 22 358 56 608 175 353 168 592 225 945 225 91 0 115 3 142 20 66 40 64 20 61 646 l-3 566 -36 32 -35 33 -175 6 c-373 14 -562 61 -894 223 -82 40 -172 80 -200 89 -83 28 -226 63 -300 74 -81 12 -292 21 -350 15z"/>
 </g>
<g id="layer102" fill="#7b4820" stroke="none">
 <path d="M2013 2193 c20 -2 54 -2 75 0 20 2 3 4 -38 4 -41 0 -58 -2 -37 -4z"/>
 <path d="M1883 2183 c15 -2 37 -2 50 0 12 2 0 4 -28 4 -27 0 -38 -2 -22 -4z"/>
 <path d="M2173 2183 c15 -2 39 -2 55 0 15 2 2 4 -28 4 -30 0 -43 -2 -27 -4z"/>
 <path d="M1798 2173 c12 -2 30 -2 40 0 9 3 -1 5 -23 4 -22 0 -30 -2 -17 -4z"/>
 <path d="M2273 2173 c9 -2 25 -2 35 0 9 3 1 5 -18 5 -19 0 -27 -2 -17 -5z"/>
 <path d="M1680 2155 c-60 -17 -29 -18 40 0 30 7 44 13 30 13 -14 0 -45 -6 -70 -13z"/>
 <path d="M2375 2155 c68 -18 103 -17 40 1 -27 7 -59 13 -70 13 -11 -1 3 -7 30 -14z"/>
 <path d="M1475 2091 c-126 -53 -248 -112 -243 -117 3 -2 61 22 129 55 68 32 148 66 177 76 50 16 66 26 40 24 -7 0 -53 -17 -103 -38z"/>
 <path d="M2515 2120 c11 -5 27 -9 35 -9 13 -1 13 0 0 9 -8 5 -24 9 -35 9 l-20 0 20 -9z"/>
 <path d="M2570 2106 c0 -3 17 -10 38 -17 20 -6 75 -30 122 -52 113 -54 120 -57 120 -52 0 7 -125 69 -200 99 -62 25 -80 30 -80 22z"/>
 <path d="M2570 2062 c0 -4 33 -20 73 -36 39 -16 80 -36 89 -44 9 -8 22 -12 29 -10 7 2 -16 18 -52 36 -85 42 -139 63 -139 54z"/>
 <path d="M1875 1966 c-312 -72 -549 -296 -637 -603 -33 -113 -33 -333 0 -446 69 -242 237 -437 465 -542 123 -57 185 -69 347 -69 109 0 161 4 210 18 78 21 194 74 256 116 25 16 50 28 55 25 5 -4 9 -1 9 5 0 6 4 9 9 6 5 -3 14 1 21 9 7 8 9 15 4 15 -4 0 7 11 26 25 19 14 30 25 25 25 -4 0 7 15 26 34 19 18 35 40 37 47 2 8 8 19 14 24 8 7 9 6 4 -2 -3 -6 -1 -15 5 -19 7 -4 9 -3 5 4 -3 6 1 17 9 26 9 8 17 19 18 23 1 4 6 7 10 5 5 -1 6 2 3 7 -8 13 14 71 35 92 10 10 15 26 12 38 -3 12 -1 21 5 21 6 0 14 17 18 38 4 20 10 42 15 48 10 12 5 385 -5 429 -9 36 -14 66 -15 83 -1 7 -5 10 -11 7 -5 -3 -10 3 -10 14 0 12 -4 21 -10 21 -5 0 -10 8 -10 18 0 10 -5 23 -12 30 -7 7 -17 27 -23 44 -6 18 -16 32 -22 31 -5 -1 -16 10 -24 25 -7 15 -26 39 -42 54 -15 16 -25 32 -22 38 3 5 1 10 -6 10 -12 0 -58 45 -59 58 0 4 -11 8 -24 9 -13 1 -46 17 -73 36 -66 47 -113 70 -213 102 -73 24 -106 28 -225 31 -95 3 -159 -1 -200 -10z"/>
 <path d="M1145 1940 c-33 -16 -55 -29 -50 -29 6 0 37 13 70 29 33 15 56 28 50 28 -5 0 -37 -12 -70 -28z"/>
 <path d="M2781 1966 c22 -22 84 -55 132 -70 48 -15 55 -20 42 -30 -12 -9 -5 -11 34 -11 27 0 49 1 48 2 -1 1 -40 17 -87 36 -47 19 -102 44 -123 56 -34 19 -57 27 -46 17z"/>
 <path d="M2902 1954 c79 -42 324 -125 368 -124 8 1 -37 16 -100 35 -63 18 -153 49 -200 69 -89 38 -113 45 -68 20z"/>
 <path d="M980 1880 c-47 -16 -78 -29 -69 -29 17 -1 135 36 159 50 25 14 -1 8 -90 -21z"/>
 <path d="M1032 1848 c-24 -11 -42 -22 -39 -25 3 -2 14 0 25 6 12 6 28 11 37 11 9 0 23 7 31 15 21 21 0 18 -54 -7z"/>
 <path d="M785 1830 c-44 -10 -70 -18 -58 -19 22 -1 155 27 162 35 7 7 -20 3 -104 -16z"/>
 <path d="M3060 1840 c8 -5 22 -10 30 -10 13 0 13 1 0 10 -8 5 -22 10 -30 10 -13 0 -13 -1 0 -10z"/>
 <path d="M940 1820 c-13 -9 -13 -10 0 -10 8 0 22 5 30 10 13 9 13 10 0 10 -8 0 -22 -5 -30 -10z"/>
 <path d="M555 1800 l-70 -6 65 -2 c36 0 83 3 105 7 l40 9 -35 -1 c-19 0 -66 -3 -105 -7z"/>
 <path d="M3445 1800 c39 -9 172 -14 164 -6 -2 2 -49 6 -104 9 -67 3 -87 2 -60 -3z"/>
 <path d="M820 1791 c-22 -4 -29 -9 -20 -12 20 -8 80 1 80 12 0 10 -7 10 -60 0z"/>
 <path d="M235 1778 c-30 -16 -65 -50 -65 -62 0 -6 10 2 23 17 12 15 40 34 62 42 22 8 31 14 20 14 -11 0 -29 -5 -40 -11z"/>
 <path d="M3829 1783 c14 -3 35 -12 48 -20 54 -35 53 -29 53 -623 0 -490 -2 -555 -16 -579 -29 -48 -50 -56 -184 -62 l-125 -5 120 -2 c104 -2 124 1 152 18 66 40 64 20 61 646 l-3 566 -37 34 c-26 23 -47 34 -65 33 -26 -2 -27 -2 -4 -6z"/>
 <path d="M1050 1760 c-8 -5 -17 -7 -21 -4 -26 16 -29 -41 -26 -589 1 -353 -2 -567 -7 -567 -6 0 -5 -5 2 -12 7 -7 12 -23 12 -36 0 -21 3 -23 48 -20 l47 3 2 190 c5 377 8 1035 5 1025 -3 -7 -12 -6 -26 4 -14 9 -28 11 -36 6z"/>
 <path d="M3064 1762 c3 -5 -7 -7 -23 -4 -53 7 -52 12 -52 -499 1 -428 -1 -471 -15 -453 -13 16 -13 14 1 -14 14 -28 14 -36 3 -50 -10 -13 -10 -14 0 -8 10 6 11 1 6 -21 -4 -15 -7 -28 -8 -28 -1 -1 -17 -8 -36 -18 -30 -15 -31 -17 -8 -12 14 3 32 7 40 10 11 4 14 -7 13 -52 -1 -32 3 -64 8 -70 5 -7 27 -13 48 -13 34 0 40 3 46 27 8 32 7 68 -2 100 -7 21 -7 22 41 7 61 -18 81 -17 29 2 -21 8 -42 19 -46 25 -3 6 -10 11 -15 12 -14 3 -5 39 17 69 24 35 24 46 0 24 -19 -18 -20 -12 -21 435 0 248 -3 456 -7 462 -4 6 -1 7 7 2 9 -5 10 -2 6 14 -3 11 -9 30 -12 41 -3 11 -10 20 -15 20 -6 0 -8 -4 -5 -8z"/>
 <path d="M165 1140 c0 -311 1 -438 2 -283 2 156 2 410 0 565 -1 156 -2 29 -2 -282z"/>
 <path d="M472 1374 c-130 -64 -181 -219 -117 -349 47 -96 145 -151 254 -142 62 5 64 4 36 -9 -29 -14 -29 -14 -3 -9 25 5 27 2 31 -32 l4 -38 1 38 c2 38 3 38 35 33 l32 -6 -29 13 c-29 13 -30 13 -10 30 42 38 82 67 93 67 6 0 11 9 11 19 0 10 7 21 15 25 8 3 15 15 15 26 0 12 4 19 9 16 6 -4 8 28 5 76 -6 111 -7 118 -17 118 -4 0 -5 5 -2 10 4 6 1 9 -7 8 -7 -2 -14 6 -16 17 -4 23 -43 53 -117 90 -70 35 -152 34 -223 -1z"/>
 <path d="M3418 1385 c-97 -36 -168 -139 -168 -244 0 -95 56 -188 140 -231 l35 -18 -28 -11 c-16 -6 -32 -11 -37 -11 -5 0 -11 -4 -15 -10 -3 -5 16 -3 42 5 71 22 72 21 76 -42 l3 -58 2 58 c2 64 3 65 75 43 26 -8 44 -10 41 -5 -3 5 -13 9 -22 9 -24 0 -3 14 49 34 131 48 196 211 135 342 -59 126 -200 186 -328 139z"/>
 <path d="M170 563 c0 -15 56 -62 83 -68 12 -3 72 -4 132 -3 l110 4 -120 2 c-126 2 -154 11 -190 58 -8 10 -15 14 -15 7z"/>
 <path d="M790 512 c0 -13 47 -28 57 -18 4 3 -3 6 -13 6 -11 0 -25 5 -32 12 -9 9 -12 9 -12 0z"/>
 <path d="M548 483 c17 -2 47 -2 65 0 17 2 3 4 -33 4 -36 0 -50 -2 -32 -4z"/>
 <path d="M3430 483 c-105 -16 -247 -50 -338 -79 -96 -32 -427 -183 -418 -191 2 -2 68 28 147 66 240 116 461 181 675 200 82 8 84 8 24 8 -36 0 -76 -1 -90 -4z"/>
 <path d="M663 473 c9 -2 25 -2 35 0 9 3 1 5 -18 5 -19 0 -27 -2 -17 -5z"/>
 <path d="M892 475 c2 -3 18 -6 34 -8 17 -2 35 -7 42 -11 8 -5 10 -2 6 8 -4 11 -19 16 -47 16 -22 0 -38 -2 -35 -5z"/>
 <path d="M3145 472 c-6 -5 -41 -19 -80 -31 -62 -19 -111 -40 -94 -41 10 0 183 61 199 71 13 7 13 8 0 9 -9 0 -20 -4 -25 -8z"/>
 <path d="M800 450 c47 -10 130 -33 185 -50 137 -44 133 -43 113 -30 -39 24 -311 101 -357 99 -14 0 12 -9 59 -19z"/>
 <path d="M1130 397 c35 -17 46 -19 48 -9 5 19 -1 23 -49 27 l-44 4 45 -22z"/>
 <path d="M2838 348 c-12 -10 -19 -18 -16 -18 7 0 68 31 68 34 0 10 -35 -1 -52 -16z"/>
 <path d="M1269 285 c85 -42 156 -74 157 -72 5 4 -288 147 -301 147 -5 0 59 -34 144 -75z"/>
 <path d="M2730 296 c-14 -8 -37 -19 -52 -27 -16 -7 -26 -14 -25 -16 5 -4 61 20 97 42 31 18 14 19 -20 1z"/>
 <path d="M1445 203 c12 -12 146 -58 195 -67 19 -3 -10 9 -65 28 -55 18 -109 37 -120 41 -13 5 -17 5 -10 -2z"/>
 <path d="M2535 169 c-60 -21 -104 -38 -98 -38 17 -1 194 57 213 69 23 15 4 10 -115 -31z"/>
 <path d="M1700 120 c14 -4 36 -8 50 -8 22 0 22 1 -5 8 -16 4 -39 8 -50 8 -16 0 -15 -2 5 -8z"/>
 <path d="M2350 120 l-25 -8 25 0 c14 0 36 4 50 8 l25 8 -25 0 c-14 0 -36 -4 -50 -8z"/>
 <path d="M1825 100 c28 -5 68 -8 90 -8 35 1 33 2 -15 8 -30 5 -71 8 -90 8 -28 -1 -25 -2 15 -8z"/>
 <path d="M2268 103 c12 -2 30 -2 40 0 9 3 -1 5 -23 4 -22 0 -30 -2 -17 -4z"/>
 <path d="M2173 93 c15 -2 37 -2 50 0 12 2 0 4 -28 4 -27 0 -38 -2 -22 -4z"/>
 <path d="M2017 83 c18 -2 50 -2 70 0 21 2 7 4 -32 4 -38 0 -55 -2 -38 -4z"/>
 </g>
<g id="layer103" fill="#ab7053" stroke="none">
 <path d="M2013 2193 c20 -2 54 -2 75 0 20 2 3 4 -38 4 -41 0 -58 -2 -37 -4z"/>
 <path d="M1878 2183 c12 -2 30 -2 40 0 9 3 -1 5 -23 4 -22 0 -30 -2 -17 -4z"/>
 <path d="M2188 2183 c12 -2 32 -2 45 0 12 2 2 4 -23 4 -25 0 -35 -2 -22 -4z"/>
 <path d="M1793 2173 c9 -2 25 -2 35 0 9 3 1 5 -18 5 -19 0 -27 -2 -17 -5z"/>
 <path d="M1485 2095 c-25 -12 -26 -14 -5 -9 28 7 60 23 45 23 -5 0 -23 -6 -40 -14z"/>
 <path d="M2681 2066 c10 -9 169 -86 169 -81 0 5 -156 85 -166 85 -4 0 -5 -2 -3 -4z"/>
 <path d="M1882 1965 c-85 -19 -164 -49 -242 -92 -78 -42 -98 -58 -174 -131 -156 -152 -241 -340 -253 -562 -27 -494 391 -907 887 -877 204 13 385 92 533 236 180 173 267 394 254 645 -7 138 -25 204 -87 331 -84 169 -206 291 -375 375 -55 27 -127 56 -160 65 -84 23 -302 29 -383 10z"/>
 <path d="M1180 1955 c-14 -8 -20 -14 -15 -14 6 0 21 6 35 14 14 8 21 14 15 14 -5 0 -21 -6 -35 -14z"/>
 <path d="M2900 1955 c14 -8 30 -14 35 -14 6 0 -1 6 -15 14 -14 8 -29 14 -35 14 -5 0 1 -6 15 -14z"/>
 <path d="M1110 1925 c-14 -8 -20 -14 -15 -14 6 0 21 6 35 14 14 8 21 14 15 14 -5 0 -21 -6 -35 -14z"/>
 <path d="M2970 1926 c14 -7 36 -16 50 -20 14 -3 7 3 -15 13 -45 22 -73 27 -35 7z"/>
 <path d="M1000 1885 c-19 -7 -28 -14 -20 -14 8 0 29 6 45 14 39 17 21 18 -25 0z"/>
 <path d="M3075 1885 c17 -8 37 -14 45 -14 8 0 -1 7 -20 14 -46 18 -64 17 -25 0z"/>
 <path d="M915 1860 c-13 -5 -14 -9 -5 -9 8 0 24 4 35 9 13 5 14 9 5 9 -8 0 -24 -4 -35 -9z"/>
 <path d="M3155 1860 c11 -5 27 -9 35 -9 9 0 8 4 -5 9 -11 5 -27 9 -35 9 -9 0 -8 -4 5 -9z"/>
 <path d="M638 1803 c12 -2 30 -2 40 0 9 3 -1 5 -23 4 -22 0 -30 -2 -17 -4z"/>
 <path d="M3428 1803 c12 -2 30 -2 40 0 9 3 -1 5 -23 4 -22 0 -30 -2 -17 -4z"/>
 <path d="M518 1793 c17 -2 47 -2 65 0 17 2 3 4 -33 4 -36 0 -50 -2 -32 -4z"/>
 <path d="M3518 1793 c17 -2 47 -2 65 0 17 2 3 4 -33 4 -36 0 -50 -2 -32 -4z"/>
 <path d="M3856 1776 c17 -8 40 -26 52 -41 12 -15 22 -23 22 -17 0 16 -69 72 -88 72 -10 -1 -4 -6 14 -14z"/>
 <path d="M190 1745 c-13 -14 -22 -27 -19 -29 2 -2 14 10 27 25 29 36 24 38 -8 4z"/>
 <path d="M1032 1738 c-9 -9 -12 -157 -12 -605 l0 -593 25 -6 c57 -14 55 -34 55 605 0 608 0 611 -40 611 -9 0 -21 -5 -28 -12z"/>
 <path d="M3012 1738 c-9 -9 -12 -131 -12 -486 0 -449 -1 -474 -17 -461 -17 13 -17 13 0 -13 9 -15 17 -41 17 -58 0 -24 -6 -33 -32 -45 l-33 -15 33 6 32 6 0 -59 c0 -61 11 -83 42 -83 25 0 38 31 38 94 l0 55 47 -14 c64 -19 67 -11 4 10 -58 19 -66 41 -31 85 11 14 20 30 20 35 0 6 -9 -1 -20 -15 -19 -25 -20 -23 -20 461 0 501 -1 509 -40 509 -9 0 -21 -5 -28 -12z"/>
 <path d="M165 1140 c0 -311 1 -438 2 -283 2 156 2 410 0 565 -1 156 -2 29 -2 -282z"/>
 <path d="M3932 1147 c-1 -380 -6 -565 -13 -580 -6 -12 -23 -33 -37 -46 -27 -24 -27 -24 -2 -9 14 8 33 29 43 45 16 28 17 71 14 589 l-2 559 -3 -558z"/>
 <path d="M493 1384 c-47 -17 -114 -77 -139 -126 -21 -41 -29 -141 -15 -194 32 -118 173 -202 294 -176 55 11 60 7 15 -14 -29 -13 -30 -14 -6 -9 23 4 27 1 31 -22 l4 -28 2 28 c1 27 3 28 34 23 32 -6 32 -6 5 5 -16 6 -28 15 -28 19 0 5 20 23 45 40 82 57 127 169 104 265 -38 157 -194 242 -346 189z"/>
 <path d="M3439 1391 c-108 -35 -189 -142 -189 -250 0 -89 61 -188 143 -230 l38 -19 -36 -12 c-53 -17 -37 -23 18 -6 l47 14 2 -56 2 -57 3 54 4 53 32 -5 c18 -4 43 -9 57 -12 l25 -6 -25 12 c-24 11 -24 11 22 23 106 28 188 136 188 246 0 91 -64 192 -150 235 -38 20 -142 29 -181 16z"/>
 <path d="M170 563 c0 -5 12 -20 28 -34 l27 -24 -25 30 c-14 17 -26 32 -27 34 -2 2 -3 0 -3 -6z"/>
 <path d="M303 493 c32 -2 81 -2 110 0 29 2 3 3 -58 3 -60 0 -84 -1 -52 -3z"/>
 <path d="M3693 493 c32 -2 81 -2 110 0 29 2 3 3 -58 3 -60 0 -84 -1 -52 -3z"/>
 <path d="M543 483 c15 -2 39 -2 55 0 15 2 2 4 -28 4 -30 0 -43 -2 -27 -4z"/>
 <path d="M3503 483 c15 -2 39 -2 55 0 15 2 2 4 -28 4 -30 0 -43 -2 -27 -4z"/>
 <path d="M885 430 c11 -5 27 -9 35 -9 9 0 8 4 -5 9 -11 5 -27 9 -35 9 -9 0 -8 -4 5 -9z"/>
 <path d="M1004 394 c38 -13 71 -22 73 -20 5 5 -116 46 -131 45 -6 0 20 -11 58 -25z"/>
 <path d="M3045 386 c-50 -18 -100 -38 -110 -45 -24 -15 -29 -17 110 34 130 47 123 43 105 44 -8 0 -56 -15 -105 -33z"/>
 <path d="M2858 309 c-21 -11 -38 -22 -38 -24 0 -5 79 32 89 41 12 11 -18 1 -51 -17z"/>
 <path d="M1211 316 c10 -9 69 -36 69 -32 0 6 -55 36 -66 36 -4 0 -5 -2 -3 -4z"/>
 <path d="M1440 204 c0 -7 52 -25 57 -20 2 2 -10 8 -26 14 -17 6 -31 9 -31 6z"/>
 <path d="M2595 185 c-25 -12 -26 -14 -5 -9 28 7 60 23 45 23 -5 0 -23 -6 -40 -14z"/>
 <path d="M1793 103 c9 -2 25 -2 35 0 9 3 1 5 -18 5 -19 0 -27 -2 -17 -5z"/>
 <path d="M2273 103 c9 -2 25 -2 35 0 9 3 1 5 -18 5 -19 0 -27 -2 -17 -5z"/>
 <path d="M1878 93 c12 -2 30 -2 40 0 9 3 -1 5 -23 4 -22 0 -30 -2 -17 -4z"/>
 <path d="M2188 93 c12 -2 30 -2 40 0 9 3 -1 5 -23 4 -22 0 -30 -2 -17 -4z"/>
 <path d="M2017 83 c18 -2 50 -2 70 0 21 2 7 4 -32 4 -38 0 -55 -2 -38 -4z"/>
 </g>
<g id="layer104" fill="#ad7d37" stroke="none">
 <path d="M2013 2193 c20 -2 54 -2 75 0 20 2 3 4 -38 4 -41 0 -58 -2 -37 -4z"/>
 <path d="M1920 1973 c-336 -61 -597 -299 -681 -618 -145 -553 294 -1088 863 -1051 349 23 637 248 751 587 29 86 40 179 34 293 -7 137 -25 203 -88 331 -84 170 -206 292 -374 374 -135 66 -203 83 -355 86 -69 1 -136 0 -150 -2z"/>
 <path d="M513 1793 c15 -2 37 -2 50 0 12 2 0 4 -28 4 -27 0 -38 -2 -22 -4z"/>
 <path d="M3543 1793 c15 -2 37 -2 50 0 12 2 0 4 -28 4 -27 0 -38 -2 -22 -4z"/>
 <path d="M1032 1738 c-9 -9 -12 -157 -12 -605 l0 -593 26 -6 c14 -4 30 -2 35 3 15 15 13 1181 -2 1199 -14 17 -31 18 -47 2z"/>
 <path d="M3012 1737 c-8 -9 -10 -162 -9 -494 1 -292 -2 -479 -7 -475 -5 3 -2 -5 7 -18 12 -18 13 -26 4 -42 -9 -14 -9 -20 0 -26 8 -5 9 -13 3 -22 -25 -39 -3 -130 30 -130 28 0 43 42 37 103 -4 48 -4 48 22 43 l26 -6 -28 16 c-20 10 -27 21 -22 31 11 31 5 1005 -6 1020 -14 17 -43 17 -57 0z"/>
 <path d="M494 1384 c-46 -16 -116 -79 -140 -126 -21 -41 -29 -142 -15 -194 32 -119 173 -202 297 -176 43 9 47 9 30 -4 -19 -13 -19 -14 7 -14 18 0 25 4 21 14 -3 8 6 22 21 33 103 70 149 173 124 278 -15 61 -31 89 -81 136 -65 64 -173 85 -264 53z"/>
 <path d="M3439 1391 c-135 -44 -215 -186 -179 -316 23 -84 97 -160 173 -179 23 -5 27 -12 29 -44 1 -35 1 -35 5 -6 3 26 9 33 33 36 16 3 32 0 34 -6 3 -7 5 -6 5 2 1 6 10 12 21 12 34 0 85 26 128 65 46 41 82 122 82 185 0 91 -64 192 -150 235 -38 20 -142 29 -181 16z"/>
 <path d="M533 483 c9 -2 25 -2 35 0 9 3 1 5 -18 5 -19 0 -27 -2 -17 -5z"/>
 <path d="M3528 483 c12 -2 30 -2 40 0 9 3 -1 5 -23 4 -22 0 -30 -2 -17 -4z"/>
 <path d="M3023 380 c-13 -5 -23 -11 -23 -14 0 -6 60 11 68 19 8 8 -20 5 -45 -5z"/>
 <path d="M2017 83 c18 -2 50 -2 70 0 21 2 7 4 -32 4 -38 0 -55 -2 -38 -4z"/>
 </g>
<g id="layer105" fill="#e2b25d" stroke="none">
 <path d="M2013 2193 c20 -2 54 -2 75 0 20 2 3 4 -38 4 -41 0 -58 -2 -37 -4z"/>
 <path d="M1880 1961 c-313 -67 -563 -305 -642 -614 -25 -98 -30 -292 -9 -377 77 -322 297 -552 607 -637 342 -93 723 51 910 343 101 157 138 281 138 464 0 181 -43 326 -140 470 -187 279 -535 420 -864 351z m-65 -107 c12 -3 27 -14 34 -26 12 -20 12 -20 -10 -4 -28 20 -90 20 -144 1 -42 -15 -53 -14 -33 3 29 23 112 37 153 26z m575 -4 c19 -6 42 -14 50 -19 26 -17 5 -20 -35 -6 -60 21 -118 19 -150 -7 l-28 -21 12 22 c21 38 81 51 151 31z m-761 -97 c-30 -8 -64 -21 -77 -29 -13 -9 -26 -14 -28 -11 -8 8 66 49 100 57 56 12 61 -3 5 -17z m887 3 c28 -13 55 -29 58 -35 10 -15 8 -14 -48 14 -27 14 -63 25 -80 25 -24 0 -27 3 -16 10 21 14 29 13 86 -14z m-728 -15 c-13 -15 -24 -27 -26 -26 -6 6 30 55 40 55 5 0 -1 -13 -14 -29z m546 -12 c20 -35 18 -34 -24 15 -15 17 -19 27 -10 24 8 -3 23 -20 34 -39z m-605 9 l14 -23 -24 20 c-13 11 -26 21 -28 22 -2 2 2 3 10 3 8 0 20 -10 28 -22z m680 19 c-2 -1 -15 -11 -28 -22 l-24 -20 12 23 c6 12 19 22 28 22 9 0 14 -1 12 -3z m-793 -109 l19 -21 -27 17 c-38 25 -99 13 -144 -26 -19 -17 -34 -25 -34 -19 0 6 19 24 42 41 52 38 115 42 144 8z m1015 -9 c21 -17 39 -35 39 -41 0 -5 -16 4 -35 20 -44 39 -99 51 -137 29 -26 -15 -27 -15 -15 4 20 33 100 26 148 -12z m-381 -119 c0 -50 -3 -60 -17 -61 -10 0 -36 -1 -58 -2 l-40 -2 0 -428 0 -427 -67 0 c-58 0 -78 5 -140 37 -40 20 -66 39 -59 41 7 2 45 -12 83 -32 52 -27 81 -36 118 -36 l50 0 0 430 0 430 55 0 55 0 0 50 0 50 -175 0 -175 0 0 -50 0 -50 60 0 60 0 0 -370 0 -370 -49 25 c-27 13 -52 29 -56 35 -10 16 5 12 42 -11 19 -12 36 -20 38 -18 5 6 7 158 6 447 l-1 252 -55 0 -55 0 0 60 0 60 190 0 190 0 0 -60z m-714 19 c19 -22 19 -22 -1 -11 -11 6 -27 16 -35 22 -13 8 -13 10 1 10 9 0 24 -10 35 -21z m1054 5 c-14 -10 -31 -24 -37 -32 -7 -9 -13 -11 -13 -6 0 17 40 54 58 54 12 0 10 -4 -8 -16z m-1156 -13 c-17 -10 -40 -31 -52 -46 -12 -15 -22 -22 -22 -15 0 19 66 80 87 80 13 0 10 -5 -13 -19z m1272 -15 c19 -19 34 -40 34 -46 0 -7 -10 0 -22 15 -12 15 -35 36 -52 46 -23 14 -26 19 -12 19 10 0 33 -15 52 -34z m-1235 -86 c21 -12 54 -68 45 -78 -3 -3 -6 0 -6 7 0 22 -49 61 -77 61 -22 0 -25 2 -13 10 19 12 27 12 51 0z m1209 0 c12 -8 9 -10 -13 -10 -28 0 -77 -39 -77 -61 0 -7 -3 -10 -6 -7 -8 9 23 66 43 77 23 13 34 13 53 1z m-1292 -20 c-9 -6 -29 -25 -43 -43 -29 -34 -24 -20 7 26 11 15 27 27 36 27 16 -1 16 -1 0 -10z m1360 -17 c31 -46 36 -60 7 -26 -14 18 -34 37 -43 43 -16 9 -16 9 0 10 9 0 25 -12 36 -27z m-1276 -126 c36 -42 36 -56 1 -17 -41 44 -81 49 -123 13 -21 -17 -30 -21 -24 -10 17 30 66 57 94 51 14 -3 37 -20 52 -37z m1262 23 c19 -12 37 -28 40 -36 4 -9 -7 -5 -26 11 -40 34 -81 28 -120 -15 -36 -39 -36 -28 -2 14 24 28 46 43 66 45 4 1 22 -8 42 -19z m-1300 -126 c9 -3 16 -10 16 -15 0 -5 -10 -5 -22 0 -29 11 -67 -3 -91 -32 -10 -12 -15 -15 -11 -7 24 50 65 70 108 54z m1313 -16 c31 -35 40 -57 10 -25 -35 36 -84 37 -126 1 -17 -14 -29 -20 -26 -12 9 22 68 58 96 58 14 0 35 -10 46 -22z m-1271 -130 c23 -12 50 -36 59 -52 17 -31 16 -31 -2 -8 -51 63 -117 79 -158 37 -32 -31 -32 -16 0 19 29 32 48 33 101 4z m1249 -4 c32 -35 32 -50 0 -19 -13 14 -36 25 -51 25 -32 0 -90 -34 -105 -62 -6 -11 -13 -17 -16 -14 -9 9 35 58 69 76 48 25 75 24 103 -6z m-1148 -146 c37 -35 26 -42 -15 -9 -53 43 -95 50 -134 21 l-30 -22 12 22 c6 11 21 25 33 29 28 10 104 -13 134 -41z m1112 12 l16 -24 -32 23 c-40 30 -82 24 -136 -21 -31 -24 -37 -26 -28 -10 13 25 41 42 91 58 42 13 69 5 89 -26z m-823 -66 c19 -15 18 -15 -3 -9 -19 5 -23 1 -29 -30 -3 -19 -10 -38 -15 -41 -12 -7 -11 -2 2 52 13 49 16 51 45 28z m-235 -40 c25 -13 57 -44 45 -44 -4 0 -20 10 -36 21 -16 13 -50 24 -78 27 -41 4 -53 1 -71 -17 -27 -27 -28 -14 0 15 17 18 28 21 67 16 26 -2 59 -11 73 -18z m984 -4 c3 -6 2 -10 -4 -10 -5 0 -13 5 -17 11 -11 18 -102 5 -135 -20 -17 -13 -33 -21 -35 -18 -3 3 10 16 28 30 48 37 142 41 163 7z m-905 -80 c11 -7 -1 -10 -40 -10 -34 0 -64 -6 -78 -16 -12 -8 -22 -11 -22 -6 0 17 24 30 60 35 61 7 65 7 80 -3z m730 0 c0 -5 -9 -10 -20 -10 -11 0 -37 -7 -57 -15 -32 -13 -34 -13 -23 0 20 24 100 44 100 25z m74 -16 c20 -19 21 -31 2 -15 -8 7 -27 16 -43 21 l-28 8 27 1 c15 1 34 -6 42 -15z m-746 -12 c2 -7 -2 -10 -12 -6 -9 3 -16 11 -16 16 0 13 23 5 28 -10z m3 -84 c58 -32 47 -42 -13 -12 -63 32 -66 34 -44 34 10 0 36 -10 57 -22z m585 -3 c-26 -13 -63 -36 -82 -50 -19 -14 -34 -22 -34 -18 1 18 123 93 150 92 8 0 -7 -11 -34 -24z"/>
 <path d="M513 1793 c15 -2 37 -2 50 0 12 2 0 4 -28 4 -27 0 -38 -2 -22 -4z"/>
 <path d="M3543 1793 c15 -2 37 -2 50 0 12 2 0 4 -28 4 -27 0 -38 -2 -22 -4z"/>
 <path d="M1032 1738 c-9 -9 -12 -155 -12 -594 0 -522 2 -584 16 -599 12 -12 19 -13 30 -4 12 10 14 109 14 598 0 576 -2 611 -30 611 -3 0 -11 -5 -18 -12z"/>
 <path d="M3032 1741 c-9 -5 -12 -140 -12 -495 -1 -425 -3 -487 -15 -482 -12 4 -12 1 2 -20 13 -21 14 -30 5 -45 -8 -12 -8 -19 -2 -19 6 0 10 -28 10 -64 0 -39 5 -68 13 -74 24 -20 36 3 38 72 2 67 2 67 28 62 l26 -6 -27 15 c-31 18 -32 19 -18 46 7 13 7 19 0 19 -7 0 -10 160 -10 494 0 510 -1 520 -38 497z"/>
 <path d="M502 1382 c-76 -28 -109 -58 -147 -137 -72 -146 20 -323 183 -353 28 -5 72 -6 98 -2 42 6 45 6 29 -6 -18 -13 -17 -14 8 -14 17 0 25 4 21 13 -2 7 21 34 52 62 31 26 65 67 75 89 25 55 25 151 0 208 -51 121 -195 184 -319 140z"/>
 <path d="M3420 1381 c-99 -35 -164 -131 -163 -241 0 -107 55 -192 148 -231 51 -21 55 -25 57 -58 l1 -36 4 32 c4 30 7 32 59 39 122 15 209 92 233 206 42 193 -149 356 -339 289z"/>
 <path d="M533 483 c9 -2 25 -2 35 0 9 3 1 5 -18 5 -19 0 -27 -2 -17 -5z"/>
 <path d="M3528 483 c12 -2 30 -2 40 0 9 3 -1 5 -23 4 -22 0 -30 -2 -17 -4z"/>
 <path d="M2017 83 c18 -2 50 -2 70 0 21 2 7 4 -32 4 -38 0 -55 -2 -38 -4z"/>
 </g>
<g id="layer106" fill="#dfac97" stroke="none">
 <path d="M2013 2193 c20 -2 54 -2 75 0 20 2 3 4 -38 4 -41 0 -58 -2 -37 -4z"/>
 <path d="M1695 1865 c-38 -19 -83 -46 -99 -60 -16 -14 -32 -25 -36 -25 -10 0 -130 -118 -130 -128 0 -19 14 -20 39 -3 14 10 34 21 43 24 11 4 15 12 12 22 -9 24 31 61 82 76 36 11 44 18 42 34 -4 27 53 55 114 55 26 0 48 5 50 12 2 6 14 -4 26 -23 20 -31 20 -34 4 -39 -40 -13 -112 -50 -111 -57 0 -4 4 -16 8 -27 6 -16 10 -14 31 18 14 20 32 36 40 36 8 0 26 3 39 7 23 6 24 4 18 -32 -12 -71 -79 -142 -110 -117 -11 10 -17 4 -32 -28 -10 -22 -26 -47 -36 -56 -16 -14 -18 -14 -29 7 -7 12 -10 44 -8 75 3 29 2 52 -1 50 -3 -2 -14 -6 -24 -9 -17 -6 -17 -8 -1 -32 29 -44 1 -203 -34 -190 -7 2 4 -17 25 -44 21 -27 111 -142 201 -256 l162 -207 0 251 0 251 -60 0 -60 0 0 70 0 70 80 0 c44 0 80 3 80 6 0 3 -28 42 -63 87 -89 115 -88 111 -41 104 l39 -6 -30 16 c-16 9 -32 17 -34 19 -2 1 7 18 19 36 l22 33 -24 -27 c-30 -35 -39 -35 -67 2 -12 17 -26 28 -31 25 -5 -3 -11 -1 -15 5 -10 15 -24 12 -100 -25z"/>
 <path d="M513 1793 c15 -2 37 -2 50 0 12 2 0 4 -28 4 -27 0 -38 -2 -22 -4z"/>
 <path d="M3543 1793 c15 -2 37 -2 50 0 12 2 0 4 -28 4 -27 0 -38 -2 -22 -4z"/>
 <path d="M1536 1577 c-16 -12 -16 -14 3 -31 21 -19 21 -19 21 12 0 36 0 36 -24 19z"/>
 <path d="M2140 1092 l0 -349 30 -29 c16 -16 30 -33 30 -39 0 -5 16 -27 35 -48 19 -21 35 -42 35 -47 0 -20 23 -20 56 0 29 18 32 24 21 34 -30 24 -28 46 6 66 17 11 42 20 54 20 18 0 21 5 17 25 -3 20 3 29 31 47 22 14 35 31 35 44 0 12 16 37 36 56 l35 35 -75 99 c-41 54 -109 142 -151 194 -83 104 -97 122 -150 193 -20 26 -38 47 -40 47 -3 0 -5 -157 -5 -348z"/>
 <path d="M2368 1381 c12 -19 19 -38 16 -43 -3 -4 -1 -8 5 -8 5 0 12 -21 14 -47 l3 -48 2 48 c2 46 3 47 30 42 24 -6 25 -5 7 6 -11 7 -22 13 -24 15 -2 2 7 18 19 36 l23 33 -29 -27 -28 -28 -29 28 -29 27 20 -34z"/>
 <path d="M3427 1329 c-10 -6 -28 -9 -40 -7 -12 1 -24 -2 -27 -7 -3 -6 5 -11 18 -13 22 -3 30 -17 13 -24 -12 -4 -24 -48 -14 -48 5 0 17 16 27 35 14 26 24 34 38 29 19 -6 25 10 8 21 -6 4 -8 11 -5 16 8 11 5 11 -18 -2z"/>
 <path d="M440 1321 c0 -5 9 -13 21 -16 19 -6 19 -8 4 -32 -21 -31 -36 -81 -27 -87 4 -2 19 21 33 51 l26 55 -20 19 c-22 21 -37 24 -37 10z"/>
 <path d="M3500 1211 c0 -47 -1 -50 -31 -56 -28 -6 -29 -8 -13 -20 10 -7 24 -11 31 -8 9 3 13 -4 13 -20 0 -14 5 -29 10 -32 6 -4 10 7 10 25 0 29 2 32 24 26 13 -3 35 -2 47 3 22 8 23 8 4 18 -11 6 -32 10 -47 9 -27 -2 -28 0 -28 46 0 26 -4 50 -10 53 -6 4 -10 -13 -10 -44z"/>
 <path d="M579 1200 c-1 -8 -3 -22 -3 -30 -1 -16 -71 -22 -93 -7 -8 6 -10 2 -6 -13 3 -12 13 -20 22 -19 9 2 31 -1 49 -5 30 -7 32 -11 33 -49 0 -33 2 -38 9 -22 5 11 9 32 9 47 1 18 6 26 14 23 6 -3 19 0 27 5 13 9 13 11 1 19 -8 5 -20 7 -27 4 -8 -3 -17 8 -23 29 -5 18 -10 26 -12 18z"/>
 <path d="M3620 1025 c-13 -30 -28 -51 -33 -48 -6 3 -7 1 -4 -5 4 -5 15 -9 25 -7 9 1 22 -1 27 -6 6 -4 17 -4 25 1 8 6 10 10 4 10 -5 0 -19 7 -30 16 -10 8 -13 13 -6 9 7 -4 12 -3 10 2 -1 4 2 23 6 41 12 52 2 47 -24 -13z"/>
 <path d="M695 1023 c-10 -24 -23 -43 -28 -43 -4 0 -5 -4 -2 -10 3 -5 17 -10 31 -10 29 0 30 -5 6 -35 -14 -17 -22 -21 -35 -13 -13 7 -17 5 -17 -8 0 -11 5 -14 18 -10 14 5 14 4 -2 -9 -19 -14 -19 -15 8 -15 17 0 25 4 21 11 -4 6 2 21 14 33 20 22 38 72 22 62 -4 -3 -13 -1 -21 4 -11 7 -11 11 -1 24 7 8 11 25 9 38 -3 20 -6 17 -23 -19z"/>
 <path d="M3400 984 c0 -3 11 -20 25 -39 24 -31 25 -34 8 -50 -16 -17 -16 -17 5 -11 20 7 22 4 24 -31 1 -37 1 -37 5 -5 4 27 8 32 31 32 23 1 25 2 10 11 -18 10 -25 39 -10 39 5 0 14 12 21 28 11 24 8 23 -22 -11 l-34 -37 -28 40 c-27 38 -35 47 -35 34z"/>
 <path d="M437 974 c-12 -13 3 -21 29 -16 19 3 22 7 12 13 -16 10 -32 11 -41 3z"/>
 <path d="M1756 774 c21 -33 32 -60 27 -65 -5 -5 -33 -18 -63 -28 -67 -24 -49 -28 21 -5 27 9 53 13 57 10 3 -4 9 -31 13 -59 l6 -52 2 58 c1 67 4 68 93 36 32 -11 64 -19 71 -16 6 2 -3 7 -20 11 -18 4 -33 12 -33 17 0 5 -13 9 -29 9 -16 0 -35 7 -42 16 -11 14 -9 23 12 65 26 47 26 48 3 31 -12 -9 -30 -29 -39 -44 -9 -16 -19 -28 -24 -28 -4 0 -24 23 -45 50 -21 28 -40 50 -42 50 -2 0 12 -25 32 -56z"/>
 <path d="M2605 816 l-20 -15 20 -15 c17 -13 20 -13 23 0 2 8 2 21 0 30 -3 13 -5 13 -23 0z"/>
 <path d="M3010 738 c20 -35 20 -37 3 -47 -17 -10 -16 -10 4 -11 18 0 22 -7 26 -42 l4 -43 1 47 2 47 32 -10 c42 -12 48 -4 7 10 l-31 11 17 27 17 28 -23 -22 -23 -23 -28 33 -28 32 20 -37z"/>
 <path d="M2685 710 c-7 -22 -16 -25 -32 -9 -7 7 -12 1 -17 -24 -4 -19 -17 -51 -30 -70 -14 -20 -21 -39 -18 -43 4 -3 -3 -1 -15 5 -15 8 -23 21 -24 39 0 20 -4 15 -13 -20 -15 -57 -60 -118 -87 -118 -16 0 -19 7 -19 40 0 44 -4 47 -26 25 -8 -8 -24 -21 -35 -29 -22 -15 -19 -25 16 -70 14 -19 16 -19 55 -1 22 10 40 22 40 27 0 4 5 8 11 8 15 0 86 58 133 109 23 24 48 51 57 60 25 25 40 58 33 75 -8 22 -21 20 -29 -4z"/>
 <path d="M2521 701 c-12 -8 -12 -12 -2 -25 19 -23 31 -20 31 9 0 27 -6 30 -29 16z"/>
 <path d="M533 483 c9 -2 25 -2 35 0 9 3 1 5 -18 5 -19 0 -27 -2 -17 -5z"/>
 <path d="M3528 483 c12 -2 30 -2 40 0 9 3 -1 5 -23 4 -22 0 -30 -2 -17 -4z"/>
 <path d="M2017 83 c18 -2 50 -2 70 0 21 2 7 4 -32 4 -38 0 -55 -2 -38 -4z"/>
 </g>
<g id="layer107" fill="#facd8b" stroke="none">
 <path d="M2013 2193 c20 -2 54 -2 75 0 20 2 3 4 -38 4 -41 0 -58 -2 -37 -4z"/>
 <path d="M1695 1865 c-38 -19 -83 -46 -99 -60 -16 -14 -32 -25 -36 -25 -10 0 -130 -118 -130 -128 0 -19 14 -20 39 -3 14 10 34 21 43 24 11 4 15 12 12 22 -9 24 31 61 82 76 36 11 44 18 42 34 -4 27 53 55 115 55 31 0 47 4 47 13 0 6 11 -1 25 -18 27 -33 31 -45 13 -45 -17 0 -118 -50 -117 -58 0 -4 4 -15 8 -26 6 -16 10 -14 31 18 14 20 33 36 43 36 10 0 28 5 39 11 20 11 21 9 15 -30 -10 -74 -78 -149 -110 -123 -11 10 -17 4 -32 -28 -10 -22 -26 -47 -36 -56 -16 -14 -18 -14 -29 7 -7 12 -10 44 -8 75 3 29 2 52 -1 50 -3 -2 -14 -6 -24 -9 -17 -6 -17 -8 -1 -32 29 -44 1 -203 -34 -190 -7 2 4 -17 25 -44 21 -27 111 -142 201 -256 l162 -207 0 251 0 251 -60 0 -60 0 0 70 0 70 80 0 c44 0 80 2 80 5 0 3 -31 47 -70 96 -38 50 -70 95 -70 99 0 5 14 4 32 -1 41 -11 48 -4 9 9 -37 13 -37 15 -10 55 l21 32 -29 -33 -29 -34 -28 36 c-15 20 -31 34 -36 31 -5 -3 -11 -1 -15 5 -10 15 -24 12 -100 -25z"/>
 <path d="M503 1793 c9 -2 25 -2 35 0 9 3 1 5 -18 5 -19 0 -27 -2 -17 -5z"/>
 <path d="M3563 1793 c9 -2 25 -2 35 0 9 3 1 5 -18 5 -19 0 -27 -2 -17 -5z"/>
 <path d="M1536 1577 c-16 -12 -16 -14 3 -31 21 -19 21 -19 21 12 0 36 0 36 -24 19z"/>
 <path d="M2140 1092 l0 -349 30 -29 c16 -16 30 -33 30 -39 0 -5 16 -27 35 -48 19 -21 35 -42 35 -47 0 -20 23 -20 56 0 29 18 32 24 21 34 -30 24 -28 46 6 66 17 11 42 20 54 20 18 0 21 5 17 25 -3 20 3 29 31 47 22 14 35 31 35 44 0 12 16 37 36 56 l35 35 -75 99 c-41 54 -109 142 -151 194 -83 104 -97 122 -150 193 -20 26 -38 47 -40 47 -3 0 -5 -157 -5 -348z"/>
 <path d="M2370 1383 c12 -18 18 -37 15 -43 -3 -5 -2 -10 4 -10 5 0 12 -21 14 -47 l3 -48 2 48 c2 46 3 47 30 42 24 -6 25 -5 7 6 -11 7 -22 13 -24 15 -2 2 7 18 19 36 l21 33 -28 -32 -27 -32 -29 32 -29 32 22 -32z"/>
 <path d="M3427 1329 c-10 -6 -28 -9 -40 -7 -12 1 -24 -2 -27 -7 -3 -6 5 -11 18 -13 22 -3 30 -17 13 -24 -12 -4 -24 -48 -14 -48 5 0 17 16 27 35 14 26 24 34 38 29 19 -6 25 10 8 21 -6 4 -8 11 -5 16 8 11 5 11 -18 -2z"/>
 <path d="M440 1321 c0 -5 9 -13 21 -16 19 -6 19 -8 4 -32 -21 -31 -36 -81 -27 -87 4 -2 19 21 33 51 l26 55 -20 19 c-22 21 -37 24 -37 10z"/>
 <path d="M3500 1211 c0 -47 -1 -50 -31 -56 -28 -6 -29 -8 -13 -20 10 -7 24 -11 31 -8 9 3 13 -4 13 -20 0 -14 5 -29 10 -32 6 -4 10 7 10 25 0 29 2 32 24 26 13 -3 35 -2 47 3 22 8 23 8 4 18 -11 6 -32 10 -47 9 -27 -2 -28 0 -28 46 0 26 -4 50 -10 53 -6 4 -10 -13 -10 -44z"/>
 <path d="M579 1200 c-1 -8 -3 -22 -3 -30 -1 -16 -71 -22 -93 -7 -8 6 -10 2 -6 -13 3 -12 13 -20 22 -19 9 2 31 -1 49 -5 30 -7 32 -11 33 -49 0 -33 2 -38 9 -22 5 11 9 32 9 47 1 18 6 26 14 23 6 -3 19 0 27 5 13 9 13 11 1 19 -8 5 -20 7 -27 4 -8 -3 -17 8 -23 29 -5 18 -10 26 -12 18z"/>
 <path d="M3620 1025 c-13 -30 -28 -51 -33 -48 -6 3 -7 1 -4 -5 4 -5 15 -9 25 -7 9 1 22 -1 27 -6 6 -4 17 -4 25 1 8 6 10 10 4 10 -5 0 -19 7 -30 16 -10 8 -13 13 -6 9 7 -4 12 -3 10 2 -1 4 2 23 6 41 12 52 2 47 -24 -13z"/>
 <path d="M695 1023 c-10 -24 -23 -43 -28 -43 -4 0 -5 -4 -2 -10 3 -5 17 -10 31 -10 28 0 30 -7 7 -32 -9 -10 -11 -18 -6 -18 6 0 16 6 22 14 14 16 24 59 12 52 -4 -3 -13 -1 -21 4 -11 7 -11 11 -1 24 7 8 11 25 9 38 -3 20 -6 17 -23 -19z"/>
 <path d="M3400 983 c1 -5 11 -21 24 -37 14 -16 22 -35 19 -43 -3 -7 0 -13 5 -13 6 0 13 -10 15 -22 l4 -23 2 23 c1 19 5 22 29 17 l27 -6 -23 14 c-21 12 -22 16 -10 28 8 8 20 26 27 39 10 18 4 15 -22 -13 l-34 -37 -28 40 c-27 40 -35 47 -35 33z"/>
 <path d="M437 974 c-12 -13 3 -21 29 -16 19 3 22 7 12 13 -16 10 -32 11 -41 3z"/>
 <path d="M1759 771 l40 -59 -37 -16 -37 -17 36 6 c42 6 48 -2 51 -68 1 -34 3 -30 7 20 l6 62 74 -25 c40 -14 79 -23 85 -21 6 2 -4 7 -21 11 -18 4 -33 12 -33 17 0 5 -13 9 -29 9 -17 0 -33 5 -36 10 -4 6 -10 8 -15 5 -5 -3 -12 0 -16 6 -4 7 -3 10 2 7 5 -3 20 18 34 47 25 52 25 52 4 36 -13 -9 -31 -31 -42 -49 l-19 -33 -43 55 c-23 31 -44 56 -47 56 -2 0 14 -27 36 -59z"/>
 <path d="M2605 816 l-20 -15 20 -15 c17 -13 20 -13 23 0 2 8 2 21 0 30 -3 13 -5 13 -23 0z"/>
 <path d="M3015 736 c17 -28 17 -30 -1 -44 -18 -14 -18 -14 3 -9 20 4 22 0 26 -42 l3 -46 2 47 c2 42 4 46 25 41 19 -4 20 -3 4 7 -14 9 -15 15 -6 33 11 21 11 21 -7 5 -17 -17 -19 -17 -42 10 l-24 27 17 -29z"/>
 <path d="M2685 710 c-7 -22 -16 -25 -32 -9 -7 7 -12 1 -17 -24 -4 -19 -17 -51 -30 -70 -14 -20 -21 -39 -18 -43 4 -3 -3 -1 -15 5 -15 8 -23 21 -24 39 0 20 -4 15 -13 -20 -15 -57 -60 -118 -87 -118 -16 0 -19 7 -19 40 0 44 -4 47 -26 25 -8 -8 -24 -21 -35 -29 -22 -15 -19 -25 16 -70 14 -19 16 -19 55 -1 22 10 40 22 40 27 0 4 5 8 11 8 15 0 86 58 133 109 23 24 48 51 57 60 25 25 40 58 33 75 -8 22 -21 20 -29 -4z"/>
 <path d="M2521 701 c-12 -8 -12 -12 -2 -25 19 -23 31 -20 31 9 0 27 -6 30 -29 16z"/>
 <path d="M1685 670 c-19 -8 -19 -9 2 -9 12 -1 25 4 28 9 7 12 -2 12 -30 0z"/>
 <path d="M2017 83 c18 -2 50 -2 70 0 21 2 7 4 -32 4 -38 0 -55 -2 -38 -4z"/>
 </g>
<g id="layer108" fill="#f6dbcb" stroke="none">
 <path d="M2013 2193 c20 -2 54 -2 75 0 20 2 3 4 -38 4 -41 0 -58 -2 -37 -4z"/>
 <path d="M1855 1831 c5 -9 1 -19 -11 -29 -18 -13 -18 -14 4 -7 21 6 22 3 23 -42 l2 -48 7 56 c4 31 11 62 15 70 7 11 6 12 -6 2 -12 -10 -18 -10 -29 0 -10 10 -11 9 -5 -2z"/>
 <path d="M503 1793 c9 -2 25 -2 35 0 9 3 1 5 -18 5 -19 0 -27 -2 -17 -5z"/>
 <path d="M3563 1793 c9 -2 25 -2 35 0 9 3 1 5 -18 5 -19 0 -27 -2 -17 -5z"/>
 <path d="M2384 1350 c0 -11 4 -20 7 -20 4 0 10 -10 12 -22 l4 -23 2 23 c0 12 5 22 9 22 4 0 8 9 8 19 0 14 -4 17 -11 11 -7 -6 -15 -6 -21 0 -6 6 -10 3 -10 -10z"/>
 <path d="M3475 920 c-4 -6 -11 -8 -16 -5 -11 7 -11 -13 1 -40 8 -18 9 -18 9 -2 1 14 6 17 24 12 19 -5 19 -4 5 5 -9 6 -15 17 -12 25 7 17 -2 20 -11 5z"/>
 <path d="M1845 760 l-28 -41 -25 23 -25 23 17 -27 c16 -25 16 -27 -1 -37 -17 -10 -16 -10 4 -11 12 0 24 -8 26 -17 4 -14 5 -13 6 4 1 17 6 20 24 16 21 -5 21 -5 3 9 -19 15 -19 16 1 44 26 39 35 54 30 54 -2 0 -17 -18 -32 -40z"/>
 <path d="M3026 719 c10 -15 10 -18 14 -51 2 -21 3 -21 7 -3 3 11 10 23 15 26 5 3 -3 14 -18 23 -17 12 -23 13 -18 5z"/>
 <path d="M2017 83 c18 -2 50 -2 70 0 21 2 7 4 -32 4 -38 0 -55 -2 -38 -4z"/>
 </g>

</svg>